<mxfile host="app.diagrams.net" modified="2021-04-27T14:33:06.123Z" agent="5.0 (Windows NT 10.0; Win64; x64) AppleWebKit/537.36 (KHTML, like Gecko) Chrome/90.0.4430.85 Safari/537.36" etag="jkK_Xa1_SzkJWO827GYK" version="14.6.6" type="github">
  <diagram name="Page-1" id="7e0a89b8-554c-2b80-1dc8-d5c74ca68de4">
    <mxGraphModel dx="415" dy="232" grid="1" gridSize="10" guides="1" tooltips="1" connect="1" arrows="1" fold="1" page="1" pageScale="1" pageWidth="1100" pageHeight="850" background="#ffffff" math="0" shadow="0">
      <root>
        <mxCell id="0" />
        <mxCell id="1" parent="0" />
        <mxCell id="BC65NS2yidvs-gmZDWed-3" value="" style="verticalLabelPosition=bottom;shadow=0;dashed=0;align=center;html=1;verticalAlign=top;shape=mxgraph.electrical.opto_electronics.led_1;pointerEvents=1;" vertex="1" parent="1">
          <mxGeometry x="300" y="150" width="53.85" height="35" as="geometry" />
        </mxCell>
        <mxCell id="BC65NS2yidvs-gmZDWed-4" value="" style="verticalLabelPosition=bottom;shadow=0;dashed=0;align=center;html=1;verticalAlign=top;shape=mxgraph.electrical.opto_electronics.led_1;pointerEvents=1;" vertex="1" parent="1">
          <mxGeometry x="390" y="148.75" width="60" height="37.5" as="geometry" />
        </mxCell>
        <mxCell id="BC65NS2yidvs-gmZDWed-5" value="" style="pointerEvents=1;verticalLabelPosition=bottom;shadow=0;dashed=0;align=center;html=1;verticalAlign=top;shape=mxgraph.electrical.resistors.resistor_2;" vertex="1" parent="1">
          <mxGeometry x="580" y="117.5" width="100" height="20" as="geometry" />
        </mxCell>
        <mxCell id="BC65NS2yidvs-gmZDWed-6" value="" style="pointerEvents=1;verticalLabelPosition=bottom;shadow=0;dashed=0;align=center;html=1;verticalAlign=top;shape=mxgraph.electrical.resistors.resistor_2;" vertex="1" parent="1">
          <mxGeometry x="720" y="117.5" width="100" height="16.25" as="geometry" />
        </mxCell>
        <mxCell id="BC65NS2yidvs-gmZDWed-8" value="" style="rounded=1;whiteSpace=wrap;html=1;rotation=-90;" vertex="1" parent="1">
          <mxGeometry x="62.5" y="307.5" width="155" height="107.5" as="geometry" />
        </mxCell>
        <mxCell id="BC65NS2yidvs-gmZDWed-21" value="" style="rounded=1;whiteSpace=wrap;html=1;rotation=-90;" vertex="1" parent="1">
          <mxGeometry x="300" y="300" width="83.75" height="68.75" as="geometry" />
        </mxCell>
        <mxCell id="BC65NS2yidvs-gmZDWed-24" value="" style="pointerEvents=1;verticalLabelPosition=bottom;shadow=0;dashed=0;align=center;html=1;verticalAlign=top;shape=mxgraph.electrical.electro-mechanical.buzzer;" vertex="1" parent="1">
          <mxGeometry x="610" y="322.5" width="45" height="60" as="geometry" />
        </mxCell>
        <mxCell id="BC65NS2yidvs-gmZDWed-25" value="" style="ellipse;whiteSpace=wrap;html=1;" vertex="1" parent="1">
          <mxGeometry x="170" y="300" width="10" height="10" as="geometry" />
        </mxCell>
        <mxCell id="BC65NS2yidvs-gmZDWed-26" value="" style="ellipse;whiteSpace=wrap;html=1;" vertex="1" parent="1">
          <mxGeometry x="170" y="315" width="10" height="10" as="geometry" />
        </mxCell>
        <mxCell id="BC65NS2yidvs-gmZDWed-27" value="" style="ellipse;whiteSpace=wrap;html=1;" vertex="1" parent="1">
          <mxGeometry x="170" y="330" width="10" height="10" as="geometry" />
        </mxCell>
        <mxCell id="BC65NS2yidvs-gmZDWed-29" value="&lt;font style=&quot;font-size: 11px&quot;&gt;vin&lt;/font&gt;" style="text;html=1;strokeColor=none;fillColor=none;align=center;verticalAlign=middle;whiteSpace=wrap;rounded=0;" vertex="1" parent="1">
          <mxGeometry x="140" y="292.5" width="40" height="20" as="geometry" />
        </mxCell>
        <mxCell id="BC65NS2yidvs-gmZDWed-30" value="gnd" style="text;html=1;strokeColor=none;fillColor=none;align=center;verticalAlign=middle;whiteSpace=wrap;rounded=0;fontSize=11;" vertex="1" parent="1">
          <mxGeometry x="135" y="310" width="40" height="20" as="geometry" />
        </mxCell>
        <mxCell id="BC65NS2yidvs-gmZDWed-31" value="5v" style="text;html=1;strokeColor=none;fillColor=none;align=center;verticalAlign=middle;whiteSpace=wrap;rounded=0;fontSize=11;" vertex="1" parent="1">
          <mxGeometry x="140" y="325" width="40" height="20" as="geometry" />
        </mxCell>
        <mxCell id="BC65NS2yidvs-gmZDWed-33" value="" style="rounded=1;whiteSpace=wrap;html=1;rotation=-90;" vertex="1" parent="1">
          <mxGeometry x="406.25" y="300" width="83.75" height="68.75" as="geometry" />
        </mxCell>
        <mxCell id="BC65NS2yidvs-gmZDWed-34" value="Arduino nano" style="text;html=1;strokeColor=none;fillColor=none;align=center;verticalAlign=middle;whiteSpace=wrap;rounded=0;" vertex="1" parent="1">
          <mxGeometry x="120" y="240" width="40" height="20" as="geometry" />
        </mxCell>
        <mxCell id="BC65NS2yidvs-gmZDWed-35" value="Steppermotor" style="text;html=1;strokeColor=none;fillColor=none;align=center;verticalAlign=middle;whiteSpace=wrap;rounded=0;" vertex="1" parent="1">
          <mxGeometry x="321.88" y="260" width="40" height="20" as="geometry" />
        </mxCell>
        <mxCell id="BC65NS2yidvs-gmZDWed-36" value="Steppermotor" style="text;html=1;strokeColor=none;fillColor=none;align=center;verticalAlign=middle;whiteSpace=wrap;rounded=0;" vertex="1" parent="1">
          <mxGeometry x="428.13" y="260" width="40" height="20" as="geometry" />
        </mxCell>
        <mxCell id="BC65NS2yidvs-gmZDWed-37" value="led" style="text;html=1;strokeColor=none;fillColor=none;align=center;verticalAlign=middle;whiteSpace=wrap;rounded=0;" vertex="1" parent="1">
          <mxGeometry x="306.93" y="113.75" width="40" height="20" as="geometry" />
        </mxCell>
        <mxCell id="BC65NS2yidvs-gmZDWed-38" value="led" style="text;html=1;strokeColor=none;fillColor=none;align=center;verticalAlign=middle;whiteSpace=wrap;rounded=0;" vertex="1" parent="1">
          <mxGeometry x="400" y="110" width="40" height="20" as="geometry" />
        </mxCell>
        <mxCell id="BC65NS2yidvs-gmZDWed-39" value="" style="ellipse;whiteSpace=wrap;html=1;" vertex="1" parent="1">
          <mxGeometry x="170" y="350" width="10" height="10" as="geometry" />
        </mxCell>
        <mxCell id="BC65NS2yidvs-gmZDWed-44" value="" style="ellipse;whiteSpace=wrap;html=1;" vertex="1" parent="1">
          <mxGeometry x="170" y="363.75" width="10" height="10" as="geometry" />
        </mxCell>
        <mxCell id="BC65NS2yidvs-gmZDWed-46" value="" style="ellipse;whiteSpace=wrap;html=1;" vertex="1" parent="1">
          <mxGeometry x="170" y="376.25" width="10" height="10" as="geometry" />
        </mxCell>
        <mxCell id="BC65NS2yidvs-gmZDWed-48" value="" style="ellipse;whiteSpace=wrap;html=1;spacingTop=-8;" vertex="1" parent="1">
          <mxGeometry x="170" y="388.5" width="10" height="10" as="geometry" />
        </mxCell>
        <mxCell id="BC65NS2yidvs-gmZDWed-49" value="A7" style="text;html=1;strokeColor=none;fillColor=none;align=center;verticalAlign=middle;whiteSpace=wrap;rounded=0;fontSize=11;" vertex="1" parent="1">
          <mxGeometry x="140" y="345" width="40" height="20" as="geometry" />
        </mxCell>
        <mxCell id="BC65NS2yidvs-gmZDWed-50" value="&lt;br&gt;A6" style="text;html=1;strokeColor=none;fillColor=none;align=center;verticalAlign=middle;whiteSpace=wrap;rounded=0;fontSize=11;" vertex="1" parent="1">
          <mxGeometry x="140" y="352.5" width="40" height="21.25" as="geometry" />
        </mxCell>
        <mxCell id="BC65NS2yidvs-gmZDWed-51" value="&lt;br&gt;A5" style="text;html=1;strokeColor=none;fillColor=none;align=center;verticalAlign=middle;whiteSpace=wrap;rounded=0;fontSize=11;" vertex="1" parent="1">
          <mxGeometry x="140" y="365" width="40" height="18.75" as="geometry" />
        </mxCell>
        <mxCell id="BC65NS2yidvs-gmZDWed-52" value="&lt;br&gt;A4" style="text;html=1;strokeColor=none;fillColor=none;align=center;verticalAlign=middle;whiteSpace=wrap;rounded=0;fontSize=11;spacing=3;" vertex="1" parent="1">
          <mxGeometry x="145" y="383.75" width="30" height="3.75" as="geometry" />
        </mxCell>
        <mxCell id="BC65NS2yidvs-gmZDWed-56" value="" style="ellipse;whiteSpace=wrap;html=1;spacingTop=-8;" vertex="1" parent="1">
          <mxGeometry x="170" y="401.25" width="10" height="10" as="geometry" />
        </mxCell>
        <mxCell id="BC65NS2yidvs-gmZDWed-57" value="&lt;br&gt;A3" style="text;html=1;strokeColor=none;fillColor=none;align=center;verticalAlign=middle;whiteSpace=wrap;rounded=0;fontSize=11;spacing=3;" vertex="1" parent="1">
          <mxGeometry x="145" y="397.5" width="30" height="3.75" as="geometry" />
        </mxCell>
        <mxCell id="BC65NS2yidvs-gmZDWed-58" value="" style="ellipse;whiteSpace=wrap;html=1;spacingTop=-8;" vertex="1" parent="1">
          <mxGeometry x="170" y="415" width="10" height="10" as="geometry" />
        </mxCell>
        <mxCell id="BC65NS2yidvs-gmZDWed-59" value="&lt;br&gt;A2" style="text;html=1;strokeColor=none;fillColor=none;align=center;verticalAlign=middle;whiteSpace=wrap;rounded=0;fontSize=11;spacing=3;" vertex="1" parent="1">
          <mxGeometry x="145" y="411.25" width="30" height="3.75" as="geometry" />
        </mxCell>
      </root>
    </mxGraphModel>
  </diagram>
</mxfile>
